<svg viewBox="0 0 20 18" fill="none" xmlns="http://www.w3.org/2000/svg">
    <path fill-rule="evenodd" clip-rule="evenodd" d="M14.5481 14.9609L14.55 14.96L17.3 17.71L18.71 16.3L16.31 13.9C17.81 12.78 19.06 11.27 19.91 9.43004C20.03 9.16004 20.03 8.85004 19.91 8.59004C18.03 4.52004 14.23 2.00004 10 2.00004C8.39 2.00004 6.85 2.37004 5.45 3.04004L2.71 0.290039L1.29361 1.70643L12.0183 12.4311L12.02 12.43L13.01 13.42L13.008 13.4208L14.5481 14.9609ZM9.49 7.07004L11.93 9.51004C11.97 9.35004 12 9.18004 12 9.00004C12 7.90004 11.1 7.00004 10 7.00004C9.82 7.00004 9.65 7.03004 9.49 7.07004ZM13.43 11.02L14.86 12.45C16.09 11.6 17.14 10.43 17.89 9.00004C16.28 5.90004 13.29 4.00004 10 4.00004C8.95 4.00004 7.94 4.21004 6.99 4.58004L7.98 5.57004C8.57 5.22004 9.26 5.00004 10 5.00004C12.21 5.00004 14 6.79004 14 9.00004C14 9.74004 13.79 10.43 13.43 11.02Z" fill="#7B61FF"/>
    <path d="M9.75119 12.9924L6.0076 9.24884C6.13092 11.2606 7.73948 12.8691 9.75119 12.9924Z" fill="#7B61FF"/>
    <path d="M3.61696 6.8582C3.03307 7.48412 2.52321 8.20154 2.11 9.00004C3.72 12.1 6.71 14 10 14C10.244 14 10.4859 13.9887 10.7254 13.9666L12.4639 15.7052C11.6686 15.8984 10.8439 16 10 16C5.77 16 1.97 13.48 0.09 9.42004C-0.03 9.16004 -0.03 8.85004 0.09 8.58004C0.639579 7.39036 1.35638 6.33864 2.19985 5.44109L3.61696 6.8582Z" fill="#7B61FF"/>
</svg>
