<svg viewBox="0 0 18 18" fill="none" xmlns="http://www.w3.org/2000/svg">
    <path fill-rule="evenodd" clip-rule="evenodd" d="M0 9C0 4.03 4.03 0 9 0C13.97 0 18 4.03 18 9C18 13.97 13.97 18 9 18C4.03 18 0 13.97 0 9ZM2 9C2 12.86 5.14 16 9 16C12.86 16 16 12.86 16 9C16 5.14 12.86 2 9 2C5.14 2 2 5.14 2 9ZM9.00004 7.59004L11.29 5.29004L12.71 6.71004L10.41 9.00004L12.71 11.29L11.29 12.71L9.00004 10.42L6.71004 12.71L5.29004 11.29L7.59004 9.00004L5.29004 6.71004L6.71004 5.29004L9.00004 7.59004Z" fill="#7B61FF"/>
</svg>
