<svg width="24" height="24" viewBox="0 0 24 24" fill="none" xmlns="http://www.w3.org/2000/svg">
    <path fill-rule="evenodd" clip-rule="evenodd" d="M12 21C16.96 21 21 16.96 21 12C21 7.04 16.96 3 12 3C7.04 3 3 7.04 3 12C3 16.96 7.04 21 12 21ZM12 5C15.86 5 19 8.14 19 12C19 15.86 15.86 19 12 19C8.14 19 5 15.86 5 12C5 8.14 8.14 5 12 5ZM12 17C12.6904 17 13.25 16.4404 13.25 15.75C13.25 15.0596 12.6904 14.5 12 14.5C11.3096 14.5 10.75 15.0596 10.75 15.75C10.75 16.4404 11.3096 17 12 17ZM11 7H13V13.5H11V7Z" fill="#7B61FF"/>
</svg>
