<svg width="16" height="22" viewBox="0 0 16 22" fill="none" xmlns="http://www.w3.org/2000/svg">
    <path d="M1.77 16.01C1.81 15.97 1.84 15.92 1.88 15.88L3.19 14.57C2.42 13.54 2 12.31 2 11C2 7.68998 4.69 4.99998 8 4.99998H9.59L8.3 6.28998L9.71 7.69998L12.71 4.69998C13.1 4.30998 13.1 3.67998 12.71 3.28998L9.71 0.289978L8.3 1.69998L9.59 2.99998H8C3.59 2.99998 0 6.58998 0 11C0 12.85 0.62 14.6 1.77 16.01Z" fill="#7B61FF"/>
    <path d="M14 11C14 14.31 11.31 17 8 17H6.41L7.7 15.71L6.29 14.3L3.29 17.3C2.9 17.69 2.9 18.32 3.29 18.71L6.29 21.71L7.7 20.3L6.41 19H8C12.41 19 16 15.41 16 11C16 9.14998 15.38 7.39998 14.23 5.98998C14.19 6.02998 14.16 6.07998 14.12 6.11998L12.81 7.42998C13.58 8.45998 14 9.68998 14 11Z" fill="#7B61FF"/>
</svg>
