<svg viewBox="0 0 19 19" fill="none" xmlns="http://www.w3.org/2000/svg">
    <path fill-rule="evenodd" clip-rule="evenodd" d="M0.999963 8.99875C0.999963 4.02951 5.03033 0 9.99996 0C14.9696 0 19 4.02951 19 8.99875C19 9.57329 18.9402 10.1278 18.8403 10.6603C18.3529 13.2653 16.7458 15.4651 14.5451 16.7617L14.5433 16.7628C13.2123 17.5433 11.6636 18 10.0025 18C8.43877 18 6.97348 17.5922 5.69602 16.8931L4.20027 17.3597L0.480225 18.5196L1.64032 14.8001L2.10666 13.3057C1.40496 12.0285 0.999963 10.5629 0.999963 8.99875ZM9.99996 2C6.1346 2 2.99996 5.13437 2.99996 8.99875C2.99996 10.3418 3.38371 11.5906 4.04307 12.6573L4.28299 13.0454L3.52471 15.4754L3.60465 15.4505L5.95374 14.7176L6.34112 14.9557C7.41288 15.6145 8.66293 16 10.0025 16C11.2909 16 12.492 15.647 13.5307 15.0381C15.2495 14.025 16.4969 12.3109 16.8745 10.2922C16.9546 9.86485 17 9.43405 17 8.99875C17 5.13437 13.8653 2 9.99996 2Z" fill="#7B61FF"/>
</svg>
