<svg viewBox="0 0 20 14" fill="none" xmlns="http://www.w3.org/2000/svg">
    <path fill-rule="evenodd" clip-rule="evenodd" d="M0.09 6.58C1.97 2.52 5.77 0 10 0C14.23 0 18.03 2.52 19.91 6.58C20.03 6.84 20.03 7.15 19.91 7.42C18.03 11.48 14.23 14 10 14C5.77 14 1.97 11.48 0.09 7.42C-0.03 7.16 -0.03 6.85 0.09 6.58ZM2.11 7C3.72 10.1 6.71 12 10 12C13.29 12 16.28 10.1 17.89 7C16.28 3.9 13.29 2 10 2C6.71 2 3.72 3.9 2.11 7ZM6 7C6 4.79 7.79 3 10 3C12.21 3 14 4.79 14 7C14 9.21 12.21 11 10 11C7.79 11 6 9.21 6 7ZM8 7C8 8.1 8.9 9 10 9C11.1 9 12 8.1 12 7C12 5.9 11.1 5 10 5C8.9 5 8 5.9 8 7Z" fill="#7B61FF"/>
</svg>
