<svg viewBox="0 0 24 24" fill="none" xmlns="http://www.w3.org/2000/svg">
    <path fill-rule="evenodd" clip-rule="evenodd" d="M9 9H16C17.66 9 19 10.34 19 12V19C19 20.66 17.66 22 16 22H8C6.34 22 5 20.66 5 19V12C5 10.7 5.84 9.6 7 9.18V7C7 4.24 9.24 2 12 2C13.38 2 14.63 2.56 15.53 3.47L14.12 4.88C13.58 4.34 12.83 4 12 4C10.35 4 9 5.35 9 7V9ZM16 20C16.55 20 17 19.55 17 19V12C17 11.45 16.55 11 16 11H8C7.45 11 7 11.45 7 12V19C7 19.55 7.45 20 8 20H16ZM13.5 15.5C13.5 16.3284 12.8284 17 12 17C11.1716 17 10.5 16.3284 10.5 15.5C10.5 14.6716 11.1716 14 12 14C12.8284 14 13.5 14.6716 13.5 15.5Z" fill="#7B61FF"/>
</svg>
