<svg viewBox="0 0 18 18" fill="none" xmlns="http://www.w3.org/2000/svg">
    <path fill-rule="evenodd" clip-rule="evenodd" d="M9 0C4.04 0 0 4.04 0 9C0 13.96 4.04 18 9 18C13.96 18 18 13.96 18 9C18 4.04 13.96 0 9 0ZM9 16C5.14 16 2 12.86 2 9C2 5.14 5.14 2 9 2C12.86 2 16 5.14 16 9C16 12.86 12.86 16 9 16ZM9 14C9.69036 14 10.25 13.4404 10.25 12.75C10.25 12.0596 9.69036 11.5 9 11.5C8.30964 11.5 7.75 12.0596 7.75 12.75C7.75 13.4404 8.30964 14 9 14ZM6 6.75C6 5.23 7.35 4 9 4C10.65 4 12 5.23 12 6.75C12 7.86 11.34 8.52 10.81 9.04C10.28 9.57 10 9.87 10 10.5H8C8 9.01984 8.79933 8.2206 9.38828 7.63172L9.4 7.62C9.84 7.19 10 7.01 10 6.75C10 6.34 9.54 6 9 6C8.46 6 8 6.34 8 6.75H6Z" fill="#7B61FF"/>
</svg>
