<svg width="88" height="88" viewBox="0 0 88 88" fill="none" xmlns="http://www.w3.org/2000/svg">
    <rect width="88" height="88" rx="44" fill="#006AFF" fill-opacity="0.1"/>
    <path fill-rule="evenodd" clip-rule="evenodd" d="M26 44C26 34.06 34.06 26 44 26C53.94 26 62 34.06 62 44C62 53.94 53.94 62 44 62C34.06 62 26 53.94 26 44ZM30 44C30 51.72 36.28 58 44 58C51.72 58 58 51.72 58 44C58 36.28 51.72 30 44 30C36.28 30 30 36.28 30 44ZM37.4201 41.6001L42.0001 46.1801L50.6201 37.6001L53.4401 40.4201L43.4401 50.4201C43.0401 50.8001 42.5401 51.0001 42.0201 51.0001C41.5001 51.0001 41.0001 50.8201 40.6001 50.4201L34.6001 44.4201L37.4201 41.6001Z" fill="#006AFF"/>
</svg>
