<svg width="24" height="24" fill="none" xmlns="http://www.w3.org/2000/svg"><path d="M19.989 0H4.011A4.01 4.01 0 0 0 0 4.01v15.978A4.012 4.012 0 0 0 4.011 24h15.978A4.012 4.012 0 0 0 24 19.988V4.01A4.012 4.012 0 0 0 19.989 0Zm-.353 18.371a1.266 1.266 0 0 1-1.265 1.266H5.631a1.266 1.266 0 0 1-1.265-1.266V5.63a1.265 1.265 0 0 1 1.265-1.266h12.74a1.266 1.266 0 0 1 1.265 1.266v12.741Z" fill="#000" fill-opacity=".9"/><path d="M9.45 15.256a.727.727 0 0 1-.726-.729V9.441a.726.726 0 0 1 .726-.73h5.1a.727.727 0 0 1 .726.73v5.086a.725.725 0 0 1-.726.729h-5.1Z" fill="#000" fill-opacity=".9"/></svg>
